<svg width="2422" height="733" viewBox="0 0 2422 733" xmlns="http://www.w3.org/2000/svg" xmlns:xlink="http://www.w3.org/1999/xlink"><defs><path id="a" d="M295 111h1833v279H295z"/><path id="b" d="M1506 111h622v279h-622z"/></defs><g fill="none" fill-rule="evenodd"><rect fill="#61A158" x="296" y="482" width="576" height="127.654" rx="63.827"/><rect fill="#708F6F" x="920" y="482" width="576" height="127.654" rx="63.827"/><rect fill="#5EAE53" x="920" y="482" width="576" height="127.654" rx="63.827"/><rect fill="#54C743" x="1544" y="482" width="576" height="127.654" rx="63.827"/><use fill="#61A158" xlink:href="#a"/><path stroke="#979797" d="M295.5 111.5h1832v278h-1832z"/><g opacity=".12"><use fill="#55E83F" xlink:href="#b"/><path stroke="#979797" d="M1506.5 111.5h621v278h-621z"/></g><text font-family="LucidaConsole, Lucida Console, Monaco, monospace" font-size="106" fill="#4A8441"><tspan x="1624" y="292">Submit</tspan></text><g transform="translate(402 209)" fill="#52894B"><rect y="3" width="80" height="80" rx="40"/><rect x="112" y="2" width="80" height="80" rx="40"/><rect x="227" y="3" width="80" height="80" rx="40"/><rect x="340" width="80" height="80" rx="40"/><rect x="454" y="2" width="80" height="80" rx="40"/></g></g></svg>