<svg width="1792" height="570" viewBox="0 0 1792 570" xmlns="http://www.w3.org/2000/svg"><g fill="none" fill-rule="evenodd"><path d="M425.765 234.164c74.6-98.23 140.925-153.3 198.976-165.215 58.052-11.916 162.413 8.123 313.083 60.116" stroke="#59DB66" stroke-width="28" opacity=".2"/><path d="M882 114L307 410" stroke="#6F9D74" stroke-width="28" opacity=".5" stroke-dasharray="25"/><path d="M1063 363l-598.357 86.727" stroke="#86BF8C" stroke-width="28"/><path d="M263.8 252.606c-61.607-11.965-103.214 9.528-124.82 64.48-20.58 59.01-10.29 102.29 30.87 129.845" stroke="#E8D127" stroke-width="28" opacity=".4" stroke-dasharray="1,1"/><rect fill="#61A158" x="863" y="41" width="460.416" height="145.92" rx="72.96"/><rect fill="#D8D061" x="156" y="398" width="319.846" height="101.369" rx="50.684"/><path d="M637.5 251.5l375 120" stroke="#FAF6D4" stroke-width="28" stroke-linecap="square" stroke-dasharray="44"/><rect fill="#708F6F" x="255" y="184" width="402.783" height="127.654" rx="63.827"/><g transform="translate(986 266)"><rect fill="#E8D127" width="645.109" height="204.455" rx="100"/><text opacity=".9" font-family="LucidaConsole, Lucida Console, Monaco, monospace" font-size="150" font-weight="bold" letter-spacing="-20" fill="#FFF"><tspan x="237" y="151">?</tspan> <tspan x="307" y="151" letter-spacing="-1.5">!</tspan></text></g></g></svg>