<svg width="650" height="207" viewBox="0 0 650 207" xmlns="http://www.w3.org/2000/svg" xmlns:xlink="http://www.w3.org/1999/xlink"><title>Rectangle</title><defs><rect id="a" x=".579" y=".179" width="648.735" height="205.932" rx="11"/><rect id="b" x="146" y="2" width="355.986" height="177.05" rx="9"/><rect id="c" x=".198" y="2" width="134.996" height="91.659" rx="11"/><path d="M589.724 0c10.02 0 18.145 4.66 18.145 10.407v134.016c0 5.747-8.125 10.406-18.146 10.406h-60.58c-10.02 0-18.144-4.66-18.144-10.407V10.407C511 4.66 519.124 0 529.145 0h60.58z" id="d"/><rect id="e" x="81.497" y="28.302" width="25.577" height="20.586" rx="5"/><rect id="f" x="33.954" y="54" width="109.91" height="42.825" rx="9"/><rect id="g" x="33.42" y="28.302" width="42.235" height="20.586" rx="6"/><rect id="h" width="172.532" height="133.083" rx="7"/><rect id="i" x="182" width="132.988" height="149.92" rx="8"/><rect id="j" x="546" y="30" width="30.28" height="34.704" rx="5"/><rect id="k" x="584.147" y="29" width="30.429" height="92.822" rx="7"/><rect id="l" x="551" y="130" width="65.189" height="24.984" rx="6"/><rect id="m" x="383" y="115" width="78.389" height="26.826" rx="4"/><rect id="n" x="383" y="147" width="65.189" height="20.586" rx="4"/><rect id="o" width="43.825" height="74.672" rx="4"/><rect id="p" x="83" width="101.339" height="68.13" rx="5"/><rect id="q" width="51.762" height="19.036" rx="5"/><rect id="r" y="24" width="72.78" height="19.036" rx="5"/><rect id="s" x="56.844" width="21.92" height="19.036" rx="5"/><rect id="t" width="42.435" height="33.415" rx="4"/><rect id="u" x="47.049" width="42.435" height="85.401" rx="4"/><rect id="v" y="90" width="78.96" height="23.383" rx="4"/><rect id="w" y="38" width="25.577" height="23.383" rx="3"/><rect id="x" x="28.623" y="38" width="12.954" height="23.383" rx="2"/><rect id="y" x="111" y="12" width="16.747" height="13.479" rx="3"/><rect id="z" x="111" y="30" width="16.747" height="33.415" rx="3"/></defs><g fill="none" fill-rule="evenodd"><g opacity=".3"><use fill="#F9EC31" xlink:href="#a"/><rect stroke="#F5E500" stroke-width="6" x="3.579" y="3.179" width="642.735" height="199.932" rx="11"/></g><g opacity=".2"><g transform="translate(20 15)"><use fill="#F9EC31" xlink:href="#b"/><rect stroke="#F5E500" stroke-width="6" x="149" y="5" width="349.986" height="171.05" rx="9"/></g><g transform="matrix(-1 0 0 1 155.393 15)"><use fill="#F9EC31" xlink:href="#c"/><rect stroke="#F5E500" stroke-width="6" x="3.198" y="5" width="128.996" height="85.659" rx="11"/></g><g transform="translate(20 15)"><use fill="#F9EC31" xlink:href="#d"/><path stroke="#F5E500" stroke-width="6" d="M589.724 3h-60.58C520.562 3 514 6.763 514 10.407v134.016c0 3.643 6.56 7.406 15.145 7.406h60.58c8.583 0 15.144-3.764 15.144-7.407V10.407c0-3.644-6.562-7.407-15.146-7.407z"/></g></g><g transform="matrix(-1 0 0 1 188.57 0)"><use fill="#44AA67" xlink:href="#e"/><rect stroke="#3DBA68" stroke-width="5" x="83.997" y="30.802" width="20.577" height="15.586" rx="5"/></g><g transform="matrix(-1 0 0 1 177.82 0)"><use fill="#44AA67" xlink:href="#f"/><rect stroke="#3DBA68" stroke-width="5" x="36.454" y="56.5" width="104.91" height="37.825" rx="9"/></g><g transform="matrix(-1 0 0 1 109.076 0)"><use fill="#44AA67" xlink:href="#g"/><rect stroke="#3DBA68" stroke-width="5" x="35.92" y="30.802" width="37.235" height="15.586" rx="6"/></g><g opacity=".3"><g transform="matrix(-1 0 0 1 357.532 30)"><use fill="#F9EC31" xlink:href="#h"/><rect stroke="#F5E500" stroke-width="6" x="3" y="3" width="166.532" height="127.083" rx="7"/></g><g transform="translate(185 30)"><use fill="#F9EC31" xlink:href="#i"/><rect stroke="#F5E500" stroke-width="6" x="185" y="3" width="126.988" height="143.92" rx="8"/></g></g><use fill="#44AA67" xlink:href="#j"/><rect stroke="#3DBA68" stroke-width="5" x="548.5" y="32.5" width="25.28" height="29.704" rx="5"/><use fill="#44AA67" xlink:href="#k"/><rect stroke="#3DBA68" stroke-width="5" x="586.647" y="31.5" width="25.429" height="87.822" rx="7"/><use fill="#44AA67" xlink:href="#l"/><rect stroke="#3DBA68" stroke-width="5" x="553.5" y="132.5" width="60.189" height="19.984" rx="6"/><use fill="#44AA67" xlink:href="#m"/><rect stroke="#3DBA68" stroke-width="5" x="385.5" y="117.5" width="73.389" height="21.826" rx="4"/><g><use fill="#44AA67" xlink:href="#n"/><rect stroke="#3DBA68" stroke-width="5" x="385.5" y="149.5" width="60.189" height="15.586" rx="4"/></g><g opacity=".6"><g transform="translate(299 40)"><use fill="#F9EC31" xlink:href="#o"/><rect stroke="#F5E500" stroke-width="6" x="3" y="3" width="37.825" height="68.672" rx="4"/></g><g transform="matrix(-1 0 0 1 566.34 40)"><use fill="#F9EC31" xlink:href="#p"/><rect stroke="#F5E500" stroke-width="6" x="86" y="3" width="95.339" height="62.13" rx="5"/></g></g><g><g transform="translate(394 53)"><use fill="#44AA67" xlink:href="#q"/><rect stroke="#3DBA68" stroke-width="4" x="2" y="2" width="47.762" height="15.036" rx="5"/></g><g transform="translate(394 53)"><use fill="#44AA67" xlink:href="#r"/><rect stroke="#3DBA68" stroke-width="4" x="2" y="26" width="68.78" height="15.036" rx="5"/></g><g transform="translate(394 53)"><use fill="#44AA67" xlink:href="#s"/><rect stroke="#3DBA68" stroke-width="4" x="58.844" y="2" width="17.92" height="15.036" rx="5"/></g></g><g><g transform="translate(202 40)"><use fill="#44AA67" xlink:href="#t"/><rect stroke="#3DBA68" stroke-width="5" x="2.5" y="2.5" width="37.435" height="28.415" rx="4"/></g><g transform="translate(202 40)"><use fill="#44AA67" xlink:href="#u"/><rect stroke="#3DBA68" stroke-width="5" x="49.549" y="2.5" width="37.435" height="80.401" rx="4"/></g><g transform="translate(202 40)"><use fill="#44AA67" xlink:href="#v"/><rect stroke="#3DBA68" stroke-width="5" x="2.5" y="92.5" width="73.96" height="18.383" rx="4"/></g><g transform="translate(202 40)"><use fill="#44AA67" xlink:href="#w"/><rect stroke="#3DBA68" stroke-width="5" x="2.5" y="40.5" width="20.577" height="18.383" rx="3"/></g><g transform="translate(202 40)"><use fill="#44AA67" xlink:href="#x"/><rect stroke="#3DBA68" stroke-width="5" x="31.123" y="40.5" width="7.954" height="18.383" rx="2"/></g><g transform="translate(202 40)"><use fill="#44AA67" xlink:href="#y"/><rect stroke="#3DBA68" stroke-width="5" x="113.5" y="14.5" width="11.747" height="8.479" rx="3"/></g><g transform="translate(202 40)"><use fill="#44AA67" xlink:href="#z"/><rect stroke="#3DBA68" stroke-width="5" x="113.5" y="32.5" width="11.747" height="28.415" rx="3"/></g></g></g></svg>