<svg width="579" height="92" viewBox="0 0 579 92" xmlns="http://www.w3.org/2000/svg" xmlns:xlink="http://www.w3.org/1999/xlink"><title>Group 6</title><defs><rect id="a" width="180.007" height="89.527" rx="9"/><rect id="b" x="20.683" y="15.412" width="138.545" height="58" rx="9"/><rect id="c" x=".989" y=".762" width="180.007" height="89.527" rx="9"/><rect id="d" x="21.683" y="16.412" width="138.545" height="58" rx="9"/><rect id="e" x=".989" y=".762" width="180.007" height="89.527" rx="9"/><rect id="f" x="21.683" y="16.412" width="138.545" height="58" rx="9"/></defs><g fill="none" fill-rule="evenodd"><g opacity=".8" transform="translate(0 1)"><use fill="#F8EE5C" xlink:href="#a"/><rect stroke="#F4E83D" stroke-width="5" x="2.5" y="2.5" width="175.007" height="84.527" rx="9"/></g><g opacity=".8" transform="matrix(-1 0 0 1 179.91 1)"><use fill="#44AA67" xlink:href="#b"/><rect stroke="#3DBA68" stroke-width="3" x="22.183" y="16.912" width="135.545" height="55" rx="9"/></g><path d="M58.013 46.553L69.67 63.335c2.205 3.175 1.42 7.537-1.757 9.742-1.172.815-2.565 1.25-3.993 1.25H40.607c-3.866 0-7-3.133-7-7 0-1.427.436-2.82 1.25-3.992l11.657-16.782c2.206-3.175 6.568-3.96 9.743-1.756.685.476 1.28 1.07 1.756 1.756zM89.264 23.547l33.512 6.514c1.48.29 2.448 1.723 2.16 3.204l-6.514 33.512c-.288 1.48-1.722 2.448-3.203 2.16l-33.513-6.514c-1.48-.288-2.448-1.722-2.16-3.203l6.514-33.513c.29-1.48 1.723-2.448 3.204-2.16zM141.696 32.184l8.26 2.684c2.122.69 3.56 2.666 3.56 4.897v8.686c0 2.23-1.438 4.208-3.56 4.897l-8.26 2.685c-2.12.69-4.445-.066-5.756-1.87l-5.106-7.028c-1.31-1.804-1.31-4.248 0-6.052l5.106-7.028c1.31-1.804 3.635-2.56 5.756-1.87z" fill="#68CE5D"/><g transform="translate(398)"><g opacity=".8"><use fill="#F8EE5C" xlink:href="#c"/><rect stroke="#F4E83D" stroke-width="5" x="3.489" y="3.262" width="175.007" height="84.527" rx="9"/></g><g opacity=".8" transform="matrix(-1 0 0 1 181.91 0)"><use fill="#44AA67" xlink:href="#d"/><rect stroke="#3DBA68" stroke-width="3" x="23.183" y="17.912" width="135.545" height="55" rx="9"/></g><path d="M82.185 71.173l-8.33-24.488c-.888-2.614.51-5.455 3.125-6.344.965-.327 2.008-.352 2.988-.07l28.37 8.133c2.653.76 4.188 3.53 3.427 6.185-.28.98-.855 1.85-1.645 2.495L90.08 73.437c-2.14 1.746-5.29 1.427-7.035-.713-.377-.462-.668-.987-.86-1.55zM137.795 23.474l12.147 8.825c2.804 2.036 3.978 5.647 2.907 8.943l-4.64 14.28c-1.072 3.297-4.144 5.53-7.61 5.53h-15.015c-3.466 0-6.537-2.233-7.608-5.53l-4.64-14.28c-1.07-3.296.102-6.907 2.906-8.944l12.147-8.826c2.804-2.038 6.6-2.038 9.405 0z" fill="#68CE5D"/><rect fill="#68CE5D" transform="rotate(11 44.65 34.65)" x="27.89" y="17.89" width="33.522" height="33.522" rx="7"/></g><g transform="translate(199 1)"><g opacity=".8"><use fill="#F8EE5C" xlink:href="#e"/><rect stroke="#F4E83D" stroke-width="5" x="3.489" y="3.262" width="175.007" height="84.527" rx="9"/></g><g opacity=".8" transform="matrix(-1 0 0 1 181.91 0)"><use fill="#44AA67" xlink:href="#f"/><rect stroke="#3DBA68" stroke-width="3" x="23.183" y="17.912" width="135.545" height="55" rx="9"/></g><path d="M59.245 29.036l16.46 8.752c3.06 1.627 4.724 5.04 4.122 8.453L76.59 64.6c-.602 3.412-3.333 6.05-6.765 6.532l-18.46 2.595c-3.432.482-6.785-1.3-8.304-4.415l-8.17-16.756c-1.52-3.115-.86-6.854 1.632-9.26l13.41-12.95c2.493-2.41 6.253-2.937 9.313-1.31z" fill="#68CE5D"/><circle fill="#68CE5D" cx="123" cy="37" r="20"/></g></g></svg>