<svg width="1200" height="400" viewBox="0 0 1200 400" xmlns="http://www.w3.org/2000/svg"><title>Rectangle 6</title><g fill="none" fill-rule="evenodd"><path d="M0 0h1200v400H0z"/><g fill="#4AAE9B"><path d="M251.06 330.84c76.97-20.94 139.37-100.17 139.37-176.97 0-17.7 4.5-37.32-4.07-49.78-27.76-40.45-76.08-67.48-135.3-51.37C174.1 73.66 111.7 152.9 111.7 229.7c0 76.8 62.4 122.07 139.36 101.14z" opacity=".7"/><path d="M265.7 342.9C342.65 322 405 242.86 405 166.17c0-76.7-62.36-121.92-139.3-101-76.9 20.9-139.27 100.02-139.27 176.72 0 76.68 62.36 121.9 139.28 101z" stroke="#979797"/></g><g fill="#4AAE9B"><path d="M780 81.64c1.75 5.92 2.66 12.6 2.66 20.02 0 61.45-62.38 150.92-139.33 199.82-39 24.8-74.28 34.4-99.57 29.85L539 336.8l-16.67-14.48c-11.66-8.85-18.33-23.46-18.33-43.55 0-61.46 62.38-150.92 139.33-199.83 56.43-35.86 105.02-39.96 126.92-15.36l15.06 12.57-5.3 5.5z" opacity=".6"/><path d="M659.6 317c77-49.03 139.42-138.7 139.42-200.28 0-61.6-62.42-71.8-139.42-22.77-77 49.02-139.42 138.68-139.42 200.27 0 61.6 62.42 71.78 139.42 22.77z"/></g><g fill="#4AAE9B"><path d="M887.2 336.5c-4-3.03-6.2-9.8-6.2-20.6 0-42.8 34.74-132.44 77.6-200.22 28.38-44.9 53.2-68.94 66.74-67.63V48l.2.07c1.56.18 2.98.7 4.23 1.6l19.2 7.24 3.46 8.92h-16.38c.1 1.44.15 2.98.15 4.6 0 42.8-34.75 132.45-77.6 200.23-19.9 31.45-38.03 52.67-51.76 62.1l10.17 5.4-7.32 8.52-18.98-8.58c-1.25-.28-2.4-.8-3.42-1.55l-.08-.04z" opacity=".45"/><path d="M978.77 279.94c42.9-68.16 77.68-158.3 77.68-201.34 0-43.04-34.78-22.67-77.68 45.5-42.9 68.16-77.68 158.3-77.68 201.34 0 43.04 34.77 22.67 77.67-45.5z"/></g></g></svg>