<svg width="202" height="328" viewBox="0 0 202 328" fill="none" xmlns="http://www.w3.org/2000/svg">
<ellipse cx="101.5" cy="303.5" rx="93.5" ry="24.5" fill="#7FA49A"/>
<path d="M34 84H202L192.427 300C192.427 300 148.015 305.984 118.866 306C89.5309 306.016 43.094 300 43.094 300L34 84Z" fill="#E3F7F2"/>
<path d="M135.964 198.161L135.026 106.193L43.1235 106.102L51.4113 289.109C51.4113 289.109 91.6852 296.563 117.677 296.626C144.005 296.69 184.776 289.242 184.776 289.242L189.396 198.214L135.964 198.161Z" fill="#13A67E"/>
<path opacity="0.09" d="M142.005 120.457L146.545 172.277L109.799 176.502L101.273 125.14L142.005 120.457Z" fill="#E3F7F1"/>
<circle cx="77" cy="246" r="4" fill="#21B88F"/>
<ellipse cx="82.5" cy="233" rx="4.5" ry="5" fill="#21B88F"/>
<ellipse opacity="0.4" cx="75.5" cy="232" rx="3.5" ry="3" fill="#21B88F"/>
<path d="M77.0023 275.522L63.0882 39.5253L62.9928 30.5132L8.98581 0.891054L1.07314 12.2413L49.138 39.673L65.5885 275.643L77.0023 275.522Z" fill="#F4CD6D"/>
<path d="M139 103L140.821 195H188.635L192 103H139Z" fill="#51F4C8"/>
</svg>
