<?xml version="1.0" encoding="utf-8"?>
<svg xmlns="http://www.w3.org/2000/svg" width="557" height="364" viewBox="0 0 557 364" fill="none">
<rect width="557" height="364" fill="#F9CC9D"/>
<rect x="23" y="45" width="512" height="275" fill="#FDDC9A"/>
<path d="M38.4844 59.8516C38.4844 61.2057 38.1953 62.263 37.6172 63.0234C37.0391 63.7786 36.2318 64.1562 35.1953 64.1562C34.2786 64.1562 33.5469 63.8047 33 63.1016L32.8984 64H30.8672V52H33.125V56.3047C33.6458 55.6953 34.3307 55.3906 35.1797 55.3906C36.2109 55.3906 37.0182 55.7708 37.6016 56.5312C38.1901 57.2865 38.4844 58.3516 38.4844 59.7266V59.8516ZM36.2266 59.6875C36.2266 58.8333 36.0911 58.2109 35.8203 57.8203C35.5495 57.4245 35.1458 57.2266 34.6094 57.2266C33.8906 57.2266 33.3958 57.5208 33.125 58.1094V61.4453C33.401 62.0391 33.901 62.3359 34.625 62.3359C35.3542 62.3359 35.8333 61.9766 36.0625 61.2578C36.1719 60.9141 36.2266 60.3906 36.2266 59.6875ZM39.5312 59.6953C39.5312 58.8568 39.6927 58.1094 40.0156 57.4531C40.3385 56.7969 40.8021 56.2891 41.4062 55.9297C42.0156 55.5703 42.7214 55.3906 43.5234 55.3906C44.6641 55.3906 45.5938 55.7396 46.3125 56.4375C47.0365 57.1354 47.4401 58.0833 47.5234 59.2812L47.5391 59.8594C47.5391 61.1562 47.1771 62.1979 46.4531 62.9844C45.7292 63.7656 44.7578 64.1562 43.5391 64.1562C42.3203 64.1562 41.3464 63.7656 40.6172 62.9844C39.8932 62.2031 39.5312 61.1406 39.5312 59.7969V59.6953ZM41.7891 59.8594C41.7891 60.6615 41.9401 61.276 42.2422 61.7031C42.5443 62.125 42.9766 62.3359 43.5391 62.3359C44.0859 62.3359 44.513 62.1276 44.8203 61.7109C45.1276 61.2891 45.2812 60.6172 45.2812 59.6953C45.2812 58.9089 45.1276 58.2995 44.8203 57.8672C44.513 57.4349 44.0807 57.2188 43.5234 57.2188C42.9714 57.2188 42.5443 57.4349 42.2422 57.8672C41.9401 58.2943 41.7891 58.9583 41.7891 59.8594ZM53.6797 57.6641C53.3724 57.6224 53.1016 57.6016 52.8672 57.6016C52.013 57.6016 51.4531 57.8906 51.1875 58.4688V64H48.9297V55.5469H51.0625L51.125 56.5547C51.5781 55.7786 52.2057 55.3906 53.0078 55.3906C53.2578 55.3906 53.4922 55.4245 53.7109 55.4922L53.6797 57.6641ZM54.2656 59.7109C54.2656 58.3932 54.5599 57.3438 55.1484 56.5625C55.7422 55.7812 56.5521 55.3906 57.5781 55.3906C58.401 55.3906 59.0807 55.6979 59.6172 56.3125V52H61.8828V64H59.8438L59.7344 63.1016C59.1719 63.8047 58.4479 64.1562 57.5625 64.1562C56.5677 64.1562 55.7682 63.7656 55.1641 62.9844C54.5651 62.1979 54.2656 61.1068 54.2656 59.7109ZM56.5234 59.875C56.5234 60.6667 56.6615 61.2734 56.9375 61.6953C57.2135 62.1172 57.6146 62.3281 58.1406 62.3281C58.8385 62.3281 59.3307 62.0339 59.6172 61.4453V58.1094C59.3359 57.5208 58.849 57.2266 58.1562 57.2266C57.0677 57.2266 56.5234 58.1094 56.5234 59.875ZM67.5234 64.1562C66.2839 64.1562 65.2734 63.776 64.4922 63.0156C63.7161 62.2552 63.3281 61.2422 63.3281 59.9766V59.7578C63.3281 58.9089 63.4922 58.151 63.8203 57.4844C64.1484 56.8125 64.612 56.2969 65.2109 55.9375C65.8151 55.5729 66.5026 55.3906 67.2734 55.3906C68.4297 55.3906 69.3385 55.7552 70 56.4844C70.6667 57.2135 71 58.2474 71 59.5859V60.5078H65.6172C65.6901 61.0599 65.9089 61.5026 66.2734 61.8359C66.6432 62.1693 67.1094 62.3359 67.6719 62.3359C68.5417 62.3359 69.2214 62.0208 69.7109 61.3906L70.8203 62.6328C70.4818 63.112 70.0234 63.487 69.4453 63.7578C68.8672 64.0234 68.2266 64.1562 67.5234 64.1562ZM67.2656 57.2188C66.8177 57.2188 66.4531 57.3698 66.1719 57.6719C65.8958 57.974 65.7188 58.4062 65.6406 58.9688H68.7812V58.7891C68.7708 58.2891 68.6354 57.9036 68.375 57.6328C68.1146 57.3568 67.7448 57.2188 67.2656 57.2188ZM77.0391 57.6641C76.7318 57.6224 76.4609 57.6016 76.2266 57.6016C75.3724 57.6016 74.8125 57.8906 74.5469 58.4688V64H72.2891V55.5469H74.4219L74.4844 56.5547C74.9375 55.7786 75.5651 55.3906 76.3672 55.3906C76.6172 55.3906 76.8516 55.4245 77.0703 55.4922L77.0391 57.6641Z" fill="#C5A15B"/>
<rect x="58" y="77" width="442" height="206" fill="#C2CE89"/>
<rect x="78" y="122" width="317" height="161" fill="#8BB4C0"/>
<path d="M11.9844 11.5469L12.0547 12.4922C12.6536 11.7578 13.4635 11.3906 14.4844 11.3906C15.5729 11.3906 16.3203 11.8203 16.7266 12.6797C17.3203 11.8203 18.1667 11.3906 19.2656 11.3906C20.1823 11.3906 20.8646 11.6589 21.3125 12.1953C21.7604 12.7266 21.9844 13.5286 21.9844 14.6016V20H19.7188V14.6094C19.7188 14.1302 19.625 13.7812 19.4375 13.5625C19.25 13.3385 18.9193 13.2266 18.4453 13.2266C17.7682 13.2266 17.2995 13.5495 17.0391 14.1953L17.0469 20H14.7891V14.6172C14.7891 14.1276 14.6927 13.7734 14.5 13.5547C14.3073 13.3359 13.9792 13.2266 13.5156 13.2266C12.875 13.2266 12.4115 13.4922 12.125 14.0234V20H9.86719V11.5469H11.9844ZM28.625 20C28.5208 19.7969 28.4453 19.5443 28.3984 19.2422C27.8516 19.8516 27.1406 20.1562 26.2656 20.1562C25.4375 20.1562 24.75 19.9167 24.2031 19.4375C23.6615 18.9583 23.3906 18.3542 23.3906 17.625C23.3906 16.7292 23.7214 16.0417 24.3828 15.5625C25.0495 15.0833 26.0104 14.8411 27.2656 14.8359H28.3047V14.3516C28.3047 13.9609 28.2031 13.6484 28 13.4141C27.8021 13.1797 27.487 13.0625 27.0547 13.0625C26.6745 13.0625 26.375 13.1536 26.1562 13.3359C25.9427 13.5182 25.8359 13.7682 25.8359 14.0859H23.5781C23.5781 13.5964 23.7292 13.1432 24.0312 12.7266C24.3333 12.3099 24.7604 11.9844 25.3125 11.75C25.8646 11.5104 26.4844 11.3906 27.1719 11.3906C28.2135 11.3906 29.0391 11.6536 29.6484 12.1797C30.263 12.7005 30.5703 13.4349 30.5703 14.3828V18.0469C30.5755 18.849 30.6875 19.4557 30.9062 19.8672V20H28.625ZM26.7578 18.4297C27.0911 18.4297 27.3984 18.3568 27.6797 18.2109C27.9609 18.0599 28.1693 17.8594 28.3047 17.6094V16.1562H27.4609C26.3307 16.1562 25.7292 16.5469 25.6562 17.3281L25.6484 17.4609C25.6484 17.7422 25.7474 17.974 25.9453 18.1562C26.1432 18.3385 26.4141 18.4297 26.7578 18.4297ZM37.0547 13.6641C36.7474 13.6224 36.4766 13.6016 36.2422 13.6016C35.388 13.6016 34.8281 13.8906 34.5625 14.4688V20H32.3047V11.5469H34.4375L34.5 12.5547C34.9531 11.7786 35.5807 11.3906 36.3828 11.3906C36.6328 11.3906 36.8672 11.4245 37.0859 11.4922L37.0547 13.6641ZM37.6641 15.7109C37.6641 14.4141 37.9714 13.3698 38.5859 12.5781C39.2057 11.7865 40.0391 11.3906 41.0859 11.3906C42.013 11.3906 42.7344 11.7083 43.25 12.3438L43.3438 11.5469H45.3906V19.7188C45.3906 20.4583 45.2214 21.1016 44.8828 21.6484C44.5495 22.1953 44.0781 22.612 43.4688 22.8984C42.8594 23.1849 42.1458 23.3281 41.3281 23.3281C40.7083 23.3281 40.1042 23.2031 39.5156 22.9531C38.9271 22.7083 38.4818 22.3906 38.1797 22L39.1797 20.625C39.7422 21.2552 40.4245 21.5703 41.2266 21.5703C41.8255 21.5703 42.2917 21.4089 42.625 21.0859C42.9583 20.7682 43.125 20.3151 43.125 19.7266V19.2734C42.6042 19.862 41.9193 20.1562 41.0703 20.1562C40.0547 20.1562 39.2318 19.7604 38.6016 18.9688C37.9766 18.1719 37.6641 17.1172 37.6641 15.8047V15.7109ZM39.9219 15.875C39.9219 16.6406 40.0755 17.2422 40.3828 17.6797C40.6901 18.112 41.112 18.3281 41.6484 18.3281C42.3359 18.3281 42.8281 18.0703 43.125 17.5547V14C42.8229 13.4844 42.3359 13.2266 41.6641 13.2266C41.1224 13.2266 40.6953 13.4479 40.3828 13.8906C40.0755 14.3333 39.9219 14.9948 39.9219 15.875ZM49.5156 20H47.25V11.5469H49.5156V20ZM47.1172 9.35938C47.1172 9.02083 47.2292 8.74219 47.4531 8.52344C47.6823 8.30469 47.9922 8.19531 48.3828 8.19531C48.7682 8.19531 49.0755 8.30469 49.3047 8.52344C49.5339 8.74219 49.6484 9.02083 49.6484 9.35938C49.6484 9.70312 49.5312 9.98438 49.2969 10.2031C49.0677 10.4219 48.763 10.5312 48.3828 10.5312C48.0026 10.5312 47.6953 10.4219 47.4609 10.2031C47.2318 9.98438 47.1172 9.70312 47.1172 9.35938ZM53.4609 11.5469L53.5312 12.5234C54.1354 11.7682 54.9453 11.3906 55.9609 11.3906C56.8568 11.3906 57.5234 11.6536 57.9609 12.1797C58.3984 12.7057 58.6224 13.4922 58.6328 14.5391V20H56.375V14.5938C56.375 14.1146 56.2708 13.7682 56.0625 13.5547C55.8542 13.3359 55.5078 13.2266 55.0234 13.2266C54.388 13.2266 53.9115 13.4974 53.5938 14.0391V20H51.3359V11.5469H53.4609Z" fill="#BC9265"/>
<rect x="470" y="76" width="30" height="207" fill="#E5E5E5"/>
<line x1="486" y1="90" x2="486" y2="142" stroke="#BEBEBE" stroke-width="10" stroke-linecap="round"/>
<path d="M73.4766 92.8516C73.4766 94.1536 73.1797 95.1979 72.5859 95.9844C71.9974 96.7656 71.2005 97.1562 70.1953 97.1562C69.3411 97.1562 68.651 96.8594 68.125 96.2656V100.25H65.8672V88.5469H67.9609L68.0391 89.375C68.5859 88.7188 69.2995 88.3906 70.1797 88.3906C71.2214 88.3906 72.0312 88.776 72.6094 89.5469C73.1875 90.3177 73.4766 91.3802 73.4766 92.7344V92.8516ZM71.2188 92.6875C71.2188 91.901 71.0781 91.2943 70.7969 90.8672C70.5208 90.4401 70.1172 90.2266 69.5859 90.2266C68.8776 90.2266 68.3906 90.4974 68.125 91.0391V94.5C68.401 95.0573 68.8932 95.3359 69.6016 95.3359C70.6797 95.3359 71.2188 94.4531 71.2188 92.6875ZM79.7812 97C79.6771 96.7969 79.6016 96.5443 79.5547 96.2422C79.0078 96.8516 78.2969 97.1562 77.4219 97.1562C76.5938 97.1562 75.9062 96.9167 75.3594 96.4375C74.8177 95.9583 74.5469 95.3542 74.5469 94.625C74.5469 93.7292 74.8776 93.0417 75.5391 92.5625C76.2057 92.0833 77.1667 91.8411 78.4219 91.8359H79.4609V91.3516C79.4609 90.9609 79.3594 90.6484 79.1562 90.4141C78.9583 90.1797 78.6432 90.0625 78.2109 90.0625C77.8307 90.0625 77.5312 90.1536 77.3125 90.3359C77.099 90.5182 76.9922 90.7682 76.9922 91.0859H74.7344C74.7344 90.5964 74.8854 90.1432 75.1875 89.7266C75.4896 89.3099 75.9167 88.9844 76.4688 88.75C77.0208 88.5104 77.6406 88.3906 78.3281 88.3906C79.3698 88.3906 80.1953 88.6536 80.8047 89.1797C81.4193 89.7005 81.7266 90.4349 81.7266 91.3828V95.0469C81.7318 95.849 81.8438 96.4557 82.0625 96.8672V97H79.7812ZM77.9141 95.4297C78.2474 95.4297 78.5547 95.3568 78.8359 95.2109C79.1172 95.0599 79.3255 94.8594 79.4609 94.6094V93.1562H78.6172C77.487 93.1562 76.8854 93.5469 76.8125 94.3281L76.8047 94.4609C76.8047 94.7422 76.9036 94.974 77.1016 95.1562C77.2995 95.3385 77.5703 95.4297 77.9141 95.4297ZM83.1094 92.7109C83.1094 91.3932 83.4036 90.3438 83.9922 89.5625C84.5859 88.7812 85.3958 88.3906 86.4219 88.3906C87.2448 88.3906 87.9245 88.6979 88.4609 89.3125V85H90.7266V97H88.6875L88.5781 96.1016C88.0156 96.8047 87.2917 97.1562 86.4062 97.1562C85.4115 97.1562 84.612 96.7656 84.0078 95.9844C83.4089 95.1979 83.1094 94.1068 83.1094 92.7109ZM85.3672 92.875C85.3672 93.6667 85.5052 94.2734 85.7812 94.6953C86.0573 95.1172 86.4583 95.3281 86.9844 95.3281C87.6823 95.3281 88.1745 95.0339 88.4609 94.4453V91.1094C88.1797 90.5208 87.6927 90.2266 87 90.2266C85.9115 90.2266 85.3672 91.1094 85.3672 92.875ZM92.125 92.7109C92.125 91.3932 92.4193 90.3438 93.0078 89.5625C93.6016 88.7812 94.4115 88.3906 95.4375 88.3906C96.2604 88.3906 96.9401 88.6979 97.4766 89.3125V85H99.7422V97H97.7031L97.5938 96.1016C97.0312 96.8047 96.3073 97.1562 95.4219 97.1562C94.4271 97.1562 93.6276 96.7656 93.0234 95.9844C92.4245 95.1979 92.125 94.1068 92.125 92.7109ZM94.3828 92.875C94.3828 93.6667 94.5208 94.2734 94.7969 94.6953C95.0729 95.1172 95.474 95.3281 96 95.3281C96.6979 95.3281 97.1901 95.0339 97.4766 94.4453V91.1094C97.1953 90.5208 96.7083 90.2266 96.0156 90.2266C94.9271 90.2266 94.3828 91.1094 94.3828 92.875ZM103.875 97H101.609V88.5469H103.875V97ZM101.477 86.3594C101.477 86.0208 101.589 85.7422 101.812 85.5234C102.042 85.3047 102.352 85.1953 102.742 85.1953C103.128 85.1953 103.435 85.3047 103.664 85.5234C103.893 85.7422 104.008 86.0208 104.008 86.3594C104.008 86.7031 103.891 86.9844 103.656 87.2031C103.427 87.4219 103.122 87.5312 102.742 87.5312C102.362 87.5312 102.055 87.4219 101.82 87.2031C101.591 86.9844 101.477 86.7031 101.477 86.3594ZM107.82 88.5469L107.891 89.5234C108.495 88.7682 109.305 88.3906 110.32 88.3906C111.216 88.3906 111.883 88.6536 112.32 89.1797C112.758 89.7057 112.982 90.4922 112.992 91.5391V97H110.734V91.5938C110.734 91.1146 110.63 90.7682 110.422 90.5547C110.214 90.3359 109.867 90.2266 109.383 90.2266C108.747 90.2266 108.271 90.4974 107.953 91.0391V97H105.695V88.5469H107.82ZM114.383 92.7109C114.383 91.4141 114.69 90.3698 115.305 89.5781C115.924 88.7865 116.758 88.3906 117.805 88.3906C118.732 88.3906 119.453 88.7083 119.969 89.3438L120.062 88.5469H122.109V96.7188C122.109 97.4583 121.94 98.1016 121.602 98.6484C121.268 99.1953 120.797 99.612 120.188 99.8984C119.578 100.185 118.865 100.328 118.047 100.328C117.427 100.328 116.823 100.203 116.234 99.9531C115.646 99.7083 115.201 99.3906 114.898 99L115.898 97.625C116.461 98.2552 117.143 98.5703 117.945 98.5703C118.544 98.5703 119.01 98.4089 119.344 98.0859C119.677 97.7682 119.844 97.3151 119.844 96.7266V96.2734C119.323 96.862 118.638 97.1562 117.789 97.1562C116.773 97.1562 115.951 96.7604 115.32 95.9688C114.695 95.1719 114.383 94.1172 114.383 92.8047V92.7109ZM116.641 92.875C116.641 93.6406 116.794 94.2422 117.102 94.6797C117.409 95.112 117.831 95.3281 118.367 95.3281C119.055 95.3281 119.547 95.0703 119.844 94.5547V91C119.542 90.4844 119.055 90.2266 118.383 90.2266C117.841 90.2266 117.414 90.4479 117.102 90.8906C116.794 91.3333 116.641 91.9948 116.641 92.875Z" fill="#8B9B41"/>
<path d="M271.914 64.6875C273.201 63.4531 274.122 62.5417 274.68 61.9531C275.242 61.3646 275.669 60.8177 275.961 60.3125C276.258 59.8021 276.406 59.2812 276.406 58.75C276.406 58.3281 276.273 57.9948 276.008 57.75C275.742 57.5 275.385 57.375 274.938 57.375C274.276 57.375 273.737 57.5833 273.32 58C273.227 58.0938 273.161 58.1797 273.125 58.2578C273.089 58.3307 273.07 58.4036 273.07 58.4766L273.078 58.5625L272.969 58.7109L272.859 58.625L271.672 57.7266C272.057 57.1068 272.529 56.6328 273.086 56.3047C273.648 55.9714 274.276 55.8047 274.969 55.8047C275.562 55.8047 276.096 55.9297 276.57 56.1797C277.044 56.4245 277.414 56.7682 277.68 57.2109C277.951 57.6536 278.086 58.1615 278.086 58.7344C278.086 59.3021 277.951 59.8464 277.68 60.3672C277.414 60.888 277.062 61.3932 276.625 61.8828C276.193 62.3724 275.555 63.0391 274.711 63.8828L274.07 64.5156H277.328C277.5 64.5156 277.625 64.5078 277.703 64.4922C277.786 64.4714 277.859 64.4323 277.922 64.375H278.102V66H271.914V64.6875ZM283 55.8438C283.724 55.8438 284.344 56.0495 284.859 56.4609C285.375 56.8724 285.768 57.4714 286.039 58.2578C286.315 59.0391 286.453 59.9766 286.453 61.0703C286.453 62.1641 286.315 63.1042 286.039 63.8906C285.768 64.6719 285.375 65.2708 284.859 65.6875C284.344 66.099 283.724 66.3047 283 66.3047C282.276 66.3047 281.656 66.099 281.141 65.6875C280.625 65.2708 280.229 64.6719 279.953 63.8906C279.682 63.1042 279.547 62.1641 279.547 61.0703C279.547 59.9766 279.682 59.0391 279.953 58.2578C280.229 57.4714 280.625 56.8724 281.141 56.4609C281.656 56.0495 282.276 55.8438 283 55.8438ZM283 57.2812C282.635 57.2812 282.323 57.4323 282.062 57.7344C281.802 58.0312 281.602 58.4635 281.461 59.0312C281.326 59.599 281.258 60.2786 281.258 61.0703C281.258 61.4766 281.279 61.875 281.32 62.2656L284.406 58.6016C284.26 58.1745 284.068 57.849 283.828 57.625C283.589 57.3958 283.312 57.2812 283 57.2812ZM283 64.8672C283.365 64.8672 283.677 64.7161 283.938 64.4141C284.198 64.112 284.396 63.6771 284.531 63.1094C284.672 62.5417 284.742 61.862 284.742 61.0703C284.742 60.6016 284.719 60.1771 284.672 59.7969L281.57 63.4844C281.716 63.9323 281.909 64.276 282.148 64.5156C282.393 64.75 282.677 64.8672 283 64.8672Z" fill="#F3A200"/>
<path d="M271.914 305.688C273.201 304.453 274.122 303.542 274.68 302.953C275.242 302.365 275.669 301.818 275.961 301.312C276.258 300.802 276.406 300.281 276.406 299.75C276.406 299.328 276.273 298.995 276.008 298.75C275.742 298.5 275.385 298.375 274.938 298.375C274.276 298.375 273.737 298.583 273.32 299C273.227 299.094 273.161 299.18 273.125 299.258C273.089 299.331 273.07 299.404 273.07 299.477L273.078 299.562L272.969 299.711L272.859 299.625L271.672 298.727C272.057 298.107 272.529 297.633 273.086 297.305C273.648 296.971 274.276 296.805 274.969 296.805C275.562 296.805 276.096 296.93 276.57 297.18C277.044 297.424 277.414 297.768 277.68 298.211C277.951 298.654 278.086 299.161 278.086 299.734C278.086 300.302 277.951 300.846 277.68 301.367C277.414 301.888 277.062 302.393 276.625 302.883C276.193 303.372 275.555 304.039 274.711 304.883L274.07 305.516H277.328C277.5 305.516 277.625 305.508 277.703 305.492C277.786 305.471 277.859 305.432 277.922 305.375H278.102V307H271.914V305.688ZM283 296.844C283.724 296.844 284.344 297.049 284.859 297.461C285.375 297.872 285.768 298.471 286.039 299.258C286.315 300.039 286.453 300.977 286.453 302.07C286.453 303.164 286.315 304.104 286.039 304.891C285.768 305.672 285.375 306.271 284.859 306.688C284.344 307.099 283.724 307.305 283 307.305C282.276 307.305 281.656 307.099 281.141 306.688C280.625 306.271 280.229 305.672 279.953 304.891C279.682 304.104 279.547 303.164 279.547 302.07C279.547 300.977 279.682 300.039 279.953 299.258C280.229 298.471 280.625 297.872 281.141 297.461C281.656 297.049 282.276 296.844 283 296.844ZM283 298.281C282.635 298.281 282.323 298.432 282.062 298.734C281.802 299.031 281.602 299.464 281.461 300.031C281.326 300.599 281.258 301.279 281.258 302.07C281.258 302.477 281.279 302.875 281.32 303.266L284.406 299.602C284.26 299.174 284.068 298.849 283.828 298.625C283.589 298.396 283.312 298.281 283 298.281ZM283 305.867C283.365 305.867 283.677 305.716 283.938 305.414C284.198 305.112 284.396 304.677 284.531 304.109C284.672 303.542 284.742 302.862 284.742 302.07C284.742 301.602 284.719 301.177 284.672 300.797L281.57 304.484C281.716 304.932 281.909 305.276 282.148 305.516C282.393 305.75 282.677 305.867 283 305.867Z" fill="#F3A200"/>
<path d="M510.914 182.688C512.201 181.453 513.122 180.542 513.68 179.953C514.242 179.365 514.669 178.818 514.961 178.312C515.258 177.802 515.406 177.281 515.406 176.75C515.406 176.328 515.273 175.995 515.008 175.75C514.742 175.5 514.385 175.375 513.938 175.375C513.276 175.375 512.737 175.583 512.32 176C512.227 176.094 512.161 176.18 512.125 176.258C512.089 176.331 512.07 176.404 512.07 176.477L512.078 176.562L511.969 176.711L511.859 176.625L510.672 175.727C511.057 175.107 511.529 174.633 512.086 174.305C512.648 173.971 513.276 173.805 513.969 173.805C514.562 173.805 515.096 173.93 515.57 174.18C516.044 174.424 516.414 174.768 516.68 175.211C516.951 175.654 517.086 176.161 517.086 176.734C517.086 177.302 516.951 177.846 516.68 178.367C516.414 178.888 516.062 179.393 515.625 179.883C515.193 180.372 514.555 181.039 513.711 181.883L513.07 182.516H516.328C516.5 182.516 516.625 182.508 516.703 182.492C516.786 182.471 516.859 182.432 516.922 182.375H517.102V184H510.914V182.688ZM522 173.844C522.724 173.844 523.344 174.049 523.859 174.461C524.375 174.872 524.768 175.471 525.039 176.258C525.315 177.039 525.453 177.977 525.453 179.07C525.453 180.164 525.315 181.104 525.039 181.891C524.768 182.672 524.375 183.271 523.859 183.688C523.344 184.099 522.724 184.305 522 184.305C521.276 184.305 520.656 184.099 520.141 183.688C519.625 183.271 519.229 182.672 518.953 181.891C518.682 181.104 518.547 180.164 518.547 179.07C518.547 177.977 518.682 177.039 518.953 176.258C519.229 175.471 519.625 174.872 520.141 174.461C520.656 174.049 521.276 173.844 522 173.844ZM522 175.281C521.635 175.281 521.323 175.432 521.062 175.734C520.802 176.031 520.602 176.464 520.461 177.031C520.326 177.599 520.258 178.279 520.258 179.07C520.258 179.477 520.279 179.875 520.32 180.266L523.406 176.602C523.26 176.174 523.068 175.849 522.828 175.625C522.589 175.396 522.312 175.281 522 175.281ZM522 182.867C522.365 182.867 522.677 182.716 522.938 182.414C523.198 182.112 523.396 181.677 523.531 181.109C523.672 180.542 523.742 179.862 523.742 179.07C523.742 178.602 523.719 178.177 523.672 177.797L520.57 181.484C520.716 181.932 520.909 182.276 521.148 182.516C521.393 182.75 521.677 182.867 522 182.867Z" fill="#F3A200"/>
<path d="M32.9141 182.688C34.2005 181.453 35.1224 180.542 35.6797 179.953C36.2422 179.365 36.6693 178.818 36.9609 178.312C37.2578 177.802 37.4062 177.281 37.4062 176.75C37.4062 176.328 37.2734 175.995 37.0078 175.75C36.7422 175.5 36.3854 175.375 35.9375 175.375C35.276 175.375 34.737 175.583 34.3203 176C34.2266 176.094 34.1615 176.18 34.125 176.258C34.0885 176.331 34.0703 176.404 34.0703 176.477L34.0781 176.562L33.9688 176.711L33.8594 176.625L32.6719 175.727C33.0573 175.107 33.5286 174.633 34.0859 174.305C34.6484 173.971 35.276 173.805 35.9688 173.805C36.5625 173.805 37.0964 173.93 37.5703 174.18C38.0443 174.424 38.4141 174.768 38.6797 175.211C38.9505 175.654 39.0859 176.161 39.0859 176.734C39.0859 177.302 38.9505 177.846 38.6797 178.367C38.4141 178.888 38.0625 179.393 37.625 179.883C37.1927 180.372 36.5547 181.039 35.7109 181.883L35.0703 182.516H38.3281C38.5 182.516 38.625 182.508 38.7031 182.492C38.7865 182.471 38.8594 182.432 38.9219 182.375H39.1016V184H32.9141V182.688ZM44 173.844C44.724 173.844 45.3438 174.049 45.8594 174.461C46.375 174.872 46.7682 175.471 47.0391 176.258C47.3151 177.039 47.4531 177.977 47.4531 179.07C47.4531 180.164 47.3151 181.104 47.0391 181.891C46.7682 182.672 46.375 183.271 45.8594 183.688C45.3438 184.099 44.724 184.305 44 184.305C43.276 184.305 42.6562 184.099 42.1406 183.688C41.625 183.271 41.2292 182.672 40.9531 181.891C40.6823 181.104 40.5469 180.164 40.5469 179.07C40.5469 177.977 40.6823 177.039 40.9531 176.258C41.2292 175.471 41.625 174.872 42.1406 174.461C42.6562 174.049 43.276 173.844 44 173.844ZM44 175.281C43.6354 175.281 43.3229 175.432 43.0625 175.734C42.8021 176.031 42.6016 176.464 42.4609 177.031C42.3255 177.599 42.2578 178.279 42.2578 179.07C42.2578 179.477 42.2786 179.875 42.3203 180.266L45.4062 176.602C45.2604 176.174 45.0677 175.849 44.8281 175.625C44.5885 175.396 44.3125 175.281 44 175.281ZM44 182.867C44.3646 182.867 44.6771 182.716 44.9375 182.414C45.1979 182.112 45.3958 181.677 45.5312 181.109C45.6719 180.542 45.7422 179.862 45.7422 179.07C45.7422 178.602 45.7188 178.177 45.6719 177.797L42.5703 181.484C42.7161 181.932 42.9089 182.276 43.1484 182.516C43.3932 182.75 43.6771 182.867 44 182.867Z" fill="#F3A200"/>
<path d="M274.711 28.3047C273.346 28.3047 272.307 27.8568 271.594 26.9609L272.336 25.4688L272.398 25.3438L272.562 25.4219C272.573 25.4479 272.581 25.4818 272.586 25.5234C272.591 25.5599 272.594 25.5859 272.594 25.6016C272.599 25.6953 272.612 25.7786 272.633 25.8516C272.659 25.9245 272.708 26 272.781 26.0781C273.01 26.3125 273.281 26.4844 273.594 26.5938C273.906 26.6979 274.284 26.75 274.727 26.75C275.216 26.75 275.596 26.6042 275.867 26.3125C276.143 26.0156 276.281 25.6224 276.281 25.1328C276.281 24.5964 276.13 24.1979 275.828 23.9375C275.531 23.6719 275.026 23.5391 274.312 23.5391C274.062 23.5391 273.784 23.5547 273.477 23.5859V22.1406C273.555 22.1458 273.667 22.1484 273.812 22.1484C274.635 22.1484 275.206 22.0156 275.523 21.75C275.846 21.4844 276.008 21.1146 276.008 20.6406C276.008 20.2552 275.893 19.9427 275.664 19.7031C275.44 19.4635 275.122 19.3438 274.711 19.3438C274.352 19.3438 274.018 19.4062 273.711 19.5312C273.409 19.6562 273.091 19.8724 272.758 20.1797L271.75 19.1484C272.13 18.6953 272.573 18.3594 273.078 18.1406C273.583 17.9167 274.122 17.8047 274.695 17.8047C275.305 17.8047 275.844 17.9219 276.312 18.1562C276.786 18.3854 277.154 18.7031 277.414 19.1094C277.68 19.5104 277.812 19.9609 277.812 20.4609C277.812 20.9974 277.674 21.4609 277.398 21.8516C277.128 22.237 276.802 22.5156 276.422 22.6875C276.885 22.849 277.276 23.1432 277.594 23.5703C277.911 23.9922 278.07 24.5365 278.07 25.2031C278.07 25.7812 277.935 26.3073 277.664 26.7812C277.398 27.25 277.013 27.6224 276.508 27.8984C276.003 28.1693 275.404 28.3047 274.711 28.3047ZM283 17.8438C283.724 17.8438 284.344 18.0495 284.859 18.4609C285.375 18.8724 285.768 19.4714 286.039 20.2578C286.315 21.0391 286.453 21.9766 286.453 23.0703C286.453 24.1641 286.315 25.1042 286.039 25.8906C285.768 26.6719 285.375 27.2708 284.859 27.6875C284.344 28.099 283.724 28.3047 283 28.3047C282.276 28.3047 281.656 28.099 281.141 27.6875C280.625 27.2708 280.229 26.6719 279.953 25.8906C279.682 25.1042 279.547 24.1641 279.547 23.0703C279.547 21.9766 279.682 21.0391 279.953 20.2578C280.229 19.4714 280.625 18.8724 281.141 18.4609C281.656 18.0495 282.276 17.8438 283 17.8438ZM283 19.2812C282.635 19.2812 282.323 19.4323 282.062 19.7344C281.802 20.0312 281.602 20.4635 281.461 21.0312C281.326 21.599 281.258 22.2786 281.258 23.0703C281.258 23.4766 281.279 23.875 281.32 24.2656L284.406 20.6016C284.26 20.1745 284.068 19.849 283.828 19.625C283.589 19.3958 283.312 19.2812 283 19.2812ZM283 26.8672C283.365 26.8672 283.677 26.7161 283.938 26.4141C284.198 26.112 284.396 25.6771 284.531 25.1094C284.672 24.5417 284.742 23.862 284.742 23.0703C284.742 22.6016 284.719 22.1771 284.672 21.7969L281.57 25.4844C281.716 25.9323 281.909 26.276 282.148 26.5156C282.393 26.75 282.677 26.8672 283 26.8672Z" fill="#FF8200"/>
<path d="M274.711 348.305C273.346 348.305 272.307 347.857 271.594 346.961L272.336 345.469L272.398 345.344L272.562 345.422C272.573 345.448 272.581 345.482 272.586 345.523C272.591 345.56 272.594 345.586 272.594 345.602C272.599 345.695 272.612 345.779 272.633 345.852C272.659 345.924 272.708 346 272.781 346.078C273.01 346.312 273.281 346.484 273.594 346.594C273.906 346.698 274.284 346.75 274.727 346.75C275.216 346.75 275.596 346.604 275.867 346.312C276.143 346.016 276.281 345.622 276.281 345.133C276.281 344.596 276.13 344.198 275.828 343.938C275.531 343.672 275.026 343.539 274.312 343.539C274.062 343.539 273.784 343.555 273.477 343.586V342.141C273.555 342.146 273.667 342.148 273.812 342.148C274.635 342.148 275.206 342.016 275.523 341.75C275.846 341.484 276.008 341.115 276.008 340.641C276.008 340.255 275.893 339.943 275.664 339.703C275.44 339.464 275.122 339.344 274.711 339.344C274.352 339.344 274.018 339.406 273.711 339.531C273.409 339.656 273.091 339.872 272.758 340.18L271.75 339.148C272.13 338.695 272.573 338.359 273.078 338.141C273.583 337.917 274.122 337.805 274.695 337.805C275.305 337.805 275.844 337.922 276.312 338.156C276.786 338.385 277.154 338.703 277.414 339.109C277.68 339.51 277.812 339.961 277.812 340.461C277.812 340.997 277.674 341.461 277.398 341.852C277.128 342.237 276.802 342.516 276.422 342.688C276.885 342.849 277.276 343.143 277.594 343.57C277.911 343.992 278.07 344.536 278.07 345.203C278.07 345.781 277.935 346.307 277.664 346.781C277.398 347.25 277.013 347.622 276.508 347.898C276.003 348.169 275.404 348.305 274.711 348.305ZM283 337.844C283.724 337.844 284.344 338.049 284.859 338.461C285.375 338.872 285.768 339.471 286.039 340.258C286.315 341.039 286.453 341.977 286.453 343.07C286.453 344.164 286.315 345.104 286.039 345.891C285.768 346.672 285.375 347.271 284.859 347.688C284.344 348.099 283.724 348.305 283 348.305C282.276 348.305 281.656 348.099 281.141 347.688C280.625 347.271 280.229 346.672 279.953 345.891C279.682 345.104 279.547 344.164 279.547 343.07C279.547 341.977 279.682 341.039 279.953 340.258C280.229 339.471 280.625 338.872 281.141 338.461C281.656 338.049 282.276 337.844 283 337.844ZM283 339.281C282.635 339.281 282.323 339.432 282.062 339.734C281.802 340.031 281.602 340.464 281.461 341.031C281.326 341.599 281.258 342.279 281.258 343.07C281.258 343.477 281.279 343.875 281.32 344.266L284.406 340.602C284.26 340.174 284.068 339.849 283.828 339.625C283.589 339.396 283.312 339.281 283 339.281ZM283 346.867C283.365 346.867 283.677 346.716 283.938 346.414C284.198 346.112 284.396 345.677 284.531 345.109C284.672 344.542 284.742 343.862 284.742 343.07C284.742 342.602 284.719 342.177 284.672 341.797L281.57 345.484C281.716 345.932 281.909 346.276 282.148 346.516C282.393 346.75 282.677 346.867 283 346.867Z" fill="#FF8200"/>
<path d="M542.344 176.062L540.633 176.578L540.203 175.484L542.906 174.031H544.102V184H542.344V176.062ZM551 173.844C551.724 173.844 552.344 174.049 552.859 174.461C553.375 174.872 553.768 175.471 554.039 176.258C554.315 177.039 554.453 177.977 554.453 179.07C554.453 180.164 554.315 181.104 554.039 181.891C553.768 182.672 553.375 183.271 552.859 183.688C552.344 184.099 551.724 184.305 551 184.305C550.276 184.305 549.656 184.099 549.141 183.688C548.625 183.271 548.229 182.672 547.953 181.891C547.682 181.104 547.547 180.164 547.547 179.07C547.547 177.977 547.682 177.039 547.953 176.258C548.229 175.471 548.625 174.872 549.141 174.461C549.656 174.049 550.276 173.844 551 173.844ZM551 175.281C550.635 175.281 550.323 175.432 550.062 175.734C549.802 176.031 549.602 176.464 549.461 177.031C549.326 177.599 549.258 178.279 549.258 179.07C549.258 179.477 549.279 179.875 549.32 180.266L552.406 176.602C552.26 176.174 552.068 175.849 551.828 175.625C551.589 175.396 551.312 175.281 551 175.281ZM551 182.867C551.365 182.867 551.677 182.716 551.938 182.414C552.198 182.112 552.396 181.677 552.531 181.109C552.672 180.542 552.742 179.862 552.742 179.07C552.742 178.602 552.719 178.177 552.672 177.797L549.57 181.484C549.716 181.932 549.909 182.276 550.148 182.516C550.393 182.75 550.677 182.867 551 182.867Z" fill="#FF8200"/>
<path d="M6.34375 176.062L4.63281 176.578L4.20312 175.484L6.90625 174.031H8.10156V184H6.34375V176.062ZM15 173.844C15.724 173.844 16.3438 174.049 16.8594 174.461C17.375 174.872 17.7682 175.471 18.0391 176.258C18.3151 177.039 18.4531 177.977 18.4531 179.07C18.4531 180.164 18.3151 181.104 18.0391 181.891C17.7682 182.672 17.375 183.271 16.8594 183.688C16.3438 184.099 15.724 184.305 15 184.305C14.276 184.305 13.6562 184.099 13.1406 183.688C12.625 183.271 12.2292 182.672 11.9531 181.891C11.6823 181.104 11.5469 180.164 11.5469 179.07C11.5469 177.977 11.6823 177.039 11.9531 176.258C12.2292 175.471 12.625 174.872 13.1406 174.461C13.6562 174.049 14.276 173.844 15 173.844ZM15 175.281C14.6354 175.281 14.3229 175.432 14.0625 175.734C13.8021 176.031 13.6016 176.464 13.4609 177.031C13.3255 177.599 13.2578 178.279 13.2578 179.07C13.2578 179.477 13.2786 179.875 13.3203 180.266L16.4062 176.602C16.2604 176.174 16.0677 175.849 15.8281 175.625C15.5885 175.396 15.3125 175.281 15 175.281ZM15 182.867C15.3646 182.867 15.6771 182.716 15.9375 182.414C16.1979 182.112 16.3958 181.677 16.5312 181.109C16.6719 180.542 16.7422 179.862 16.7422 179.07C16.7422 178.602 16.7188 178.177 16.6719 177.797L13.5703 181.484C13.7161 181.932 13.9089 182.276 14.1484 182.516C14.3932 182.75 14.6771 182.867 15 182.867Z" fill="#FF8200"/>
<path d="M63.3438 176.062L61.6328 176.578L61.2031 175.484L63.9062 174.031H65.1016V184H63.3438V176.062ZM72 173.844C72.724 173.844 73.3438 174.049 73.8594 174.461C74.375 174.872 74.7682 175.471 75.0391 176.258C75.3151 177.039 75.4531 177.977 75.4531 179.07C75.4531 180.164 75.3151 181.104 75.0391 181.891C74.7682 182.672 74.375 183.271 73.8594 183.688C73.3438 184.099 72.724 184.305 72 184.305C71.276 184.305 70.6562 184.099 70.1406 183.688C69.625 183.271 69.2292 182.672 68.9531 181.891C68.6823 181.104 68.5469 180.164 68.5469 179.07C68.5469 177.977 68.6823 177.039 68.9531 176.258C69.2292 175.471 69.625 174.872 70.1406 174.461C70.6562 174.049 71.276 173.844 72 173.844ZM72 175.281C71.6354 175.281 71.3229 175.432 71.0625 175.734C70.8021 176.031 70.6016 176.464 70.4609 177.031C70.3255 177.599 70.2578 178.279 70.2578 179.07C70.2578 179.477 70.2786 179.875 70.3203 180.266L73.4062 176.602C73.2604 176.174 73.0677 175.849 72.8281 175.625C72.5885 175.396 72.3125 175.281 72 175.281ZM72 182.867C72.3646 182.867 72.6771 182.716 72.9375 182.414C73.1979 182.112 73.3958 181.677 73.5312 181.109C73.6719 180.542 73.7422 179.862 73.7422 179.07C73.7422 178.602 73.7188 178.177 73.6719 177.797L70.5703 181.484C70.7161 181.932 70.9089 182.276 71.1484 182.516C71.3932 182.75 71.6771 182.867 72 182.867Z" fill="#E1FF53"/>
<path d="M428.062 184.305C426.594 184.305 425.523 183.674 424.852 182.414L426.18 181.398L426.297 181.312L426.406 181.461C426.401 181.487 426.398 181.529 426.398 181.586C426.398 181.727 426.464 181.878 426.594 182.039C426.76 182.253 426.956 182.419 427.18 182.539C427.404 182.659 427.677 182.719 428 182.719C428.307 182.719 428.581 182.646 428.82 182.5C429.06 182.349 429.25 182.128 429.391 181.836C429.531 181.544 429.602 181.188 429.602 180.766C429.602 180.146 429.461 179.664 429.18 179.32C428.898 178.971 428.526 178.797 428.062 178.797C427.745 178.797 427.464 178.875 427.219 179.031C426.974 179.182 426.732 179.424 426.492 179.758L425.344 179.266L425.711 174.031H431.07V175.555H427.281L427.148 177.484C427.539 177.37 427.909 177.312 428.258 177.312C428.888 177.312 429.438 177.451 429.906 177.727C430.375 178.003 430.737 178.401 430.992 178.922C431.247 179.443 431.375 180.062 431.375 180.781C431.375 181.474 431.24 182.086 430.969 182.617C430.698 183.148 430.312 183.562 429.812 183.859C429.312 184.156 428.729 184.305 428.062 184.305ZM436 173.844C436.724 173.844 437.344 174.049 437.859 174.461C438.375 174.872 438.768 175.471 439.039 176.258C439.315 177.039 439.453 177.977 439.453 179.07C439.453 180.164 439.315 181.104 439.039 181.891C438.768 182.672 438.375 183.271 437.859 183.688C437.344 184.099 436.724 184.305 436 184.305C435.276 184.305 434.656 184.099 434.141 183.688C433.625 183.271 433.229 182.672 432.953 181.891C432.682 181.104 432.547 180.164 432.547 179.07C432.547 177.977 432.682 177.039 432.953 176.258C433.229 175.471 433.625 174.872 434.141 174.461C434.656 174.049 435.276 173.844 436 173.844ZM436 175.281C435.635 175.281 435.323 175.432 435.062 175.734C434.802 176.031 434.602 176.464 434.461 177.031C434.326 177.599 434.258 178.279 434.258 179.07C434.258 179.477 434.279 179.875 434.32 180.266L437.406 176.602C437.26 176.174 437.068 175.849 436.828 175.625C436.589 175.396 436.312 175.281 436 175.281ZM436 182.867C436.365 182.867 436.677 182.716 436.938 182.414C437.198 182.112 437.396 181.677 437.531 181.109C437.672 180.542 437.742 179.862 437.742 179.07C437.742 178.602 437.719 178.177 437.672 177.797L434.57 181.484C434.716 181.932 434.909 182.276 435.148 182.516C435.393 182.75 435.677 182.867 436 182.867Z" fill="#E1FF53"/>
<path d="M274.711 107.305C273.346 107.305 272.307 106.857 271.594 105.961L272.336 104.469L272.398 104.344L272.562 104.422C272.573 104.448 272.581 104.482 272.586 104.523C272.591 104.56 272.594 104.586 272.594 104.602C272.599 104.695 272.612 104.779 272.633 104.852C272.659 104.924 272.708 105 272.781 105.078C273.01 105.312 273.281 105.484 273.594 105.594C273.906 105.698 274.284 105.75 274.727 105.75C275.216 105.75 275.596 105.604 275.867 105.312C276.143 105.016 276.281 104.622 276.281 104.133C276.281 103.596 276.13 103.198 275.828 102.938C275.531 102.672 275.026 102.539 274.312 102.539C274.062 102.539 273.784 102.555 273.477 102.586V101.141C273.555 101.146 273.667 101.148 273.812 101.148C274.635 101.148 275.206 101.016 275.523 100.75C275.846 100.484 276.008 100.115 276.008 99.6406C276.008 99.2552 275.893 98.9427 275.664 98.7031C275.44 98.4635 275.122 98.3438 274.711 98.3438C274.352 98.3438 274.018 98.4062 273.711 98.5312C273.409 98.6562 273.091 98.8724 272.758 99.1797L271.75 98.1484C272.13 97.6953 272.573 97.3594 273.078 97.1406C273.583 96.9167 274.122 96.8047 274.695 96.8047C275.305 96.8047 275.844 96.9219 276.312 97.1562C276.786 97.3854 277.154 97.7031 277.414 98.1094C277.68 98.5104 277.812 98.9609 277.812 99.4609C277.812 99.9974 277.674 100.461 277.398 100.852C277.128 101.237 276.802 101.516 276.422 101.688C276.885 101.849 277.276 102.143 277.594 102.57C277.911 102.992 278.07 103.536 278.07 104.203C278.07 104.781 277.935 105.307 277.664 105.781C277.398 106.25 277.013 106.622 276.508 106.898C276.003 107.169 275.404 107.305 274.711 107.305ZM283 96.8438C283.724 96.8438 284.344 97.0495 284.859 97.4609C285.375 97.8724 285.768 98.4714 286.039 99.2578C286.315 100.039 286.453 100.977 286.453 102.07C286.453 103.164 286.315 104.104 286.039 104.891C285.768 105.672 285.375 106.271 284.859 106.688C284.344 107.099 283.724 107.305 283 107.305C282.276 107.305 281.656 107.099 281.141 106.688C280.625 106.271 280.229 105.672 279.953 104.891C279.682 104.104 279.547 103.164 279.547 102.07C279.547 100.977 279.682 100.039 279.953 99.2578C280.229 98.4714 280.625 97.8724 281.141 97.4609C281.656 97.0495 282.276 96.8438 283 96.8438ZM283 98.2812C282.635 98.2812 282.323 98.4323 282.062 98.7344C281.802 99.0312 281.602 99.4635 281.461 100.031C281.326 100.599 281.258 101.279 281.258 102.07C281.258 102.477 281.279 102.875 281.32 103.266L284.406 99.6016C284.26 99.1745 284.068 98.849 283.828 98.625C283.589 98.3958 283.312 98.2812 283 98.2812ZM283 105.867C283.365 105.867 283.677 105.716 283.938 105.414C284.198 105.112 284.396 104.677 284.531 104.109C284.672 103.542 284.742 102.862 284.742 102.07C284.742 101.602 284.719 101.177 284.672 100.797L281.57 104.484C281.716 104.932 281.909 105.276 282.148 105.516C282.393 105.75 282.677 105.867 283 105.867Z" fill="#E1FF53"/>
<path d="M258.344 176.062L256.633 176.578L256.203 175.484L258.906 174.031H260.102V184H258.344V176.062ZM267.352 181.539H263.547V180.414L267.867 174.031H269.156V180.047H270.484V181.555H269.156V184H267.352V181.539ZM267.414 180.094V177.117L265.398 180.094H267.414ZM275 173.844C275.724 173.844 276.344 174.049 276.859 174.461C277.375 174.872 277.768 175.471 278.039 176.258C278.315 177.039 278.453 177.977 278.453 179.07C278.453 180.164 278.315 181.104 278.039 181.891C277.768 182.672 277.375 183.271 276.859 183.688C276.344 184.099 275.724 184.305 275 184.305C274.276 184.305 273.656 184.099 273.141 183.688C272.625 183.271 272.229 182.672 271.953 181.891C271.682 181.104 271.547 180.164 271.547 179.07C271.547 177.977 271.682 177.039 271.953 176.258C272.229 175.471 272.625 174.872 273.141 174.461C273.656 174.049 274.276 173.844 275 173.844ZM275 175.281C274.635 175.281 274.323 175.432 274.062 175.734C273.802 176.031 273.602 176.464 273.461 177.031C273.326 177.599 273.258 178.279 273.258 179.07C273.258 179.477 273.279 179.875 273.32 180.266L276.406 176.602C276.26 176.174 276.068 175.849 275.828 175.625C275.589 175.396 275.312 175.281 275 175.281ZM275 182.867C275.365 182.867 275.677 182.716 275.938 182.414C276.198 182.112 276.396 181.677 276.531 181.109C276.672 180.542 276.742 179.862 276.742 179.07C276.742 178.602 276.719 178.177 276.672 177.797L273.57 181.484C273.716 181.932 273.909 182.276 274.148 182.516C274.393 182.75 274.677 182.867 275 182.867ZM281.977 180.211L279.43 176.531H281.445L282.969 178.945L284.422 176.531H286.359L283.977 180.156L286.664 184H284.617L282.984 181.469L281.445 184H279.398L281.977 180.211ZM288.82 184C289.372 182.359 289.893 180.859 290.383 179.5C290.878 178.141 291.383 176.841 291.898 175.602H288.055V174.031H294.055V174.945C292.904 177.565 291.805 180.583 290.758 184H288.82ZM299 173.844C299.724 173.844 300.344 174.049 300.859 174.461C301.375 174.872 301.768 175.471 302.039 176.258C302.315 177.039 302.453 177.977 302.453 179.07C302.453 180.164 302.315 181.104 302.039 181.891C301.768 182.672 301.375 183.271 300.859 183.688C300.344 184.099 299.724 184.305 299 184.305C298.276 184.305 297.656 184.099 297.141 183.688C296.625 183.271 296.229 182.672 295.953 181.891C295.682 181.104 295.547 180.164 295.547 179.07C295.547 177.977 295.682 177.039 295.953 176.258C296.229 175.471 296.625 174.872 297.141 174.461C297.656 174.049 298.276 173.844 299 173.844ZM299 175.281C298.635 175.281 298.323 175.432 298.062 175.734C297.802 176.031 297.602 176.464 297.461 177.031C297.326 177.599 297.258 178.279 297.258 179.07C297.258 179.477 297.279 179.875 297.32 180.266L300.406 176.602C300.26 176.174 300.068 175.849 299.828 175.625C299.589 175.396 299.312 175.281 299 175.281ZM299 182.867C299.365 182.867 299.677 182.716 299.938 182.414C300.198 182.112 300.396 181.677 300.531 181.109C300.672 180.542 300.742 179.862 300.742 179.07C300.742 178.602 300.719 178.177 300.672 177.797L297.57 181.484C297.716 181.932 297.909 182.276 298.148 182.516C298.393 182.75 298.677 182.867 299 182.867Z" fill="#0090BA"/>
</svg>
